<?xml version="1.0" encoding="UTF-8"?>
<svg id="Layer_2" xmlns="http://www.w3.org/2000/svg" viewBox="0 0 120.98 95.18">
  <defs>
    <style>
      .cls-1 {
        fill: none;
      }

      .cls-2 {
        fill: #231f20;
      }

      .cls-3 {
        isolation: isolate;
      }

      .cls-4 {
        fill: #ffdbdb;
      }

      .cls-5 {
        fill: #e85521;
      }
    </style>
  </defs>
  <g>
    <path class="cls-4" d="M81.9,6.99l-2.39,16.84-14.73,6.23.53,5.9-.08-.45c-2.37.4-4,2.47-4.06,2.56l.72.56s1.47-1.86,3.46-2.21l.23,2.56c-2.74-.35-4.38,2.5-4.45,2.62l.79.45s1.44-2.5,3.62-2.16l.07-.45.27,3c-3.84,1.87-5.11,4.72-5.17,4.84l.84.36s1.27-2.83,5.04-4.54l-.02-.03.3-.14c2.17,4.95.89,11.24.87,11.31l.89.19c.06-.28,1.37-6.67-.94-11.89l2.32-1.1,1.96-.93c.07.74.63,1.32,1.31,1.32.73,0,1.33-.66,1.33-1.48,0-.36-.12-.69-.31-.95l4.03-1.92,8.87-4.22,1.59-18.53L99.69.59s-17.79,6.4-17.79,6.4Z"/>
    <path class="cls-4" d="M64.83,32.56l-.1-.91c-2.07.22-3.49,1.9-3.55,1.97l.7.58s1.25-1.47,2.95-1.65h0Z"/>
    <path class="cls-4" d="M54.92,42.43l.27-3,.07.45c2.18-.34,3.61,2.13,3.62,2.15l.79-.45c-.07-.12-1.7-2.97-4.45-2.62l.23-2.56c1.99.35,3.44,2.19,3.46,2.21l.72-.56c-.07-.09-1.7-2.16-4.06-2.56l-.08.45.53-5.9-14.73-6.23-2.39-16.84L21.12.57l10.88,14.15,1.59,18.53,8.87,4.22,4.03,1.92c-.19.26-.31.58-.31.95,0,.82.59,1.48,1.33,1.48.68,0,1.24-.58,1.31-1.32l1.96.93,2.32,1.1c-2.31,5.22-1,11.6-.94,11.89l.89-.19c0-.07-1.3-6.35.87-11.31l.3.14-.02.03c3.77,1.71,5.03,4.51,5.04,4.54l.84-.36c-.05-.12-1.32-2.97-5.17-4.84h.01Z"/>
    <path class="cls-4" d="M58.93,34.19l.7-.58c-.06-.07-1.48-1.75-3.55-1.97l-.1.91c1.7.18,2.94,1.63,2.95,1.65h0Z"/>
  </g>
  <path class="cls-1" d="M50.03,61.97c.05.17.11.33.17.5l.57-.5s-.74,0-.74,0Z"/>
  <path class="cls-1" d="M51.35,65.42c.1.23.21.44.31.66l.43-.66h-.74Z"/>
  <path class="cls-1" d="M48.72,58.61l.37-.65v-.03h-.72c.12.22.23.44.34.68h.01Z"/>
  <polygon class="cls-5" points="49.11 57.93 49.08 57.93 49.1 57.96 49.11 57.93"/>
  <path class="cls-4" d="M70.04,41.27l8.32-3.96c1.87,7.57-6.1,6.59-8.32,3.96Z"/>
  <g>
    <path class="cls-2" d="M64.83,47.97c2.6-.81,2.8,6.75,0,6.75s-2.8,4.94-2.8,6.25-.98-11.83,2.8-13Z"/>
    <path class="cls-2" d="M61.48,61.8l-.13-.62c-.02-.12-1.03-12.53,3.28-13.86l.2.65-.2-.65c.74-.23,1.44-.03,1.96.57,1.15,1.3,1.19,4.22.45,5.86-.48,1.07-1.26,1.65-2.21,1.65-1.39,0-2.12,1.93-2.12,5.57,0,.68-.52.76-.62.77l-.62.06h.01ZM65.21,48.59c-.06,0-.11,0-.17.03-1.43.44-2.06,3.43-2.31,6.37.54-.64,1.24-.96,2.1-.96.39,0,.71-.28.96-.85.64-1.41.41-3.67-.23-4.4-.13-.15-.24-.2-.36-.2h.01Z"/>
  </g>
  <path class="cls-4" d="M50.78,41.25l-8.32-3.96c-1.87,7.57,6.1,6.59,8.32,3.96Z"/>
  <g>
    <path class="cls-2" d="M55.99,47.95c-2.6-.81-2.8,6.75,0,6.75s2.8,4.94,2.8,6.25.98-11.83-2.8-13Z"/>
    <path class="cls-2" d="M59.35,61.77l-.62-.05c-.1,0-.62-.1-.62-.77,0-3.64-.73-5.57-2.12-5.57-.94,0-1.73-.59-2.21-1.65-.74-1.64-.7-4.56.45-5.86.53-.6,1.22-.8,1.96-.57h0c4.31,1.33,3.31,13.74,3.28,13.86,0,0-.12.61-.12.61ZM55.61,48.58c-.12,0-.23.05-.36.2-.64.72-.86,2.99-.23,4.4.25.56.58.85.96.85.86,0,1.56.32,2.1.96-.25-2.94-.88-5.93-2.3-6.37h0c-.06-.02-.12-.03-.17-.03h0Z"/>
  </g>
  <g>
    <path class="cls-2" d="M64.84,32.38l-.1-.91c-2.07.22-3.49,1.9-3.55,1.97l.7.58s1.25-1.47,2.95-1.65h0Z"/>
    <path class="cls-2" d="M61.91,34.35l-1.05-.87.15-.17c.06-.07,1.53-1.82,3.7-2.05l.23-.02.15,1.36-.23.02c-1.57.17-2.75,1.51-2.8,1.57l-.15.17h0ZM61.52,33.42l.35.29c.38-.39,1.39-1.3,2.72-1.53l-.05-.45c-1.51.25-2.63,1.28-3.02,1.69Z"/>
  </g>
  <g>
    <path class="cls-2" d="M58.93,34.01l.7-.58c-.06-.07-1.48-1.75-3.55-1.97l-.1.91c1.7.18,2.94,1.63,2.95,1.65h0Z"/>
    <path class="cls-2" d="M58.91,34.33l-.15-.17s-1.2-1.4-2.8-1.57l-.23-.02.15-1.36.23.02c2.18.23,3.64,1.98,3.7,2.05l.14.17-1.05.87h.01ZM56.24,32.17c1.33.23,2.35,1.15,2.72,1.53l.35-.29c-.39-.41-1.52-1.44-3.02-1.69,0,0-.05.45-.05.45Z"/>
  </g>
  <path class="cls-2" d="M55.13,71.38l-1-8.03s-.09-.05-.13-.08c-.76-.46-1.55-1.06-2.33-1.85l-5.41,2.08,3.75-4.1c-.12-.17-.23-.34-.35-.52h-5.1l3.81-2.34c-.06-.13-.12-.26-.19-.39h-3.62l2.16-2.67c-.13-.19-.26-.37-.39-.54h-3.75l1.13-2.35c-3.73-1.96-7.7,1.08-10.36,3.47l-2.64,4.18,8.4-3.4s2.66,6.96,7.31,13.1l4.6-1.85-.95,6c2.89,2.76,6.28,4.79,10.07,4.98v-12.55s-.25.06-.69.1l-4.33,6.76h0Z"/>
  <path class="cls-4" d="M59.45,64.61c-1.02.09-3.07.04-5.33-1.26l1,8.03,4.33-6.76h0Z"/>
  <path class="cls-4" d="M46.42,67.94c1.11,1.46,2.33,2.88,3.65,4.14l.95-6-4.6,1.85h0Z"/>
  <path class="cls-4" d="M46.26,63.51l5.41-2.08c-.56-.57-1.12-1.24-1.66-2.02l-3.75,4.1Z"/>
  <path class="cls-4" d="M46.33,52.94c-.84-1.12-1.72-1.88-2.62-2.35l-1.13,2.35h3.75Z"/>
  <path class="cls-4" d="M44.56,58.89h5.1c-.45-.7-.88-1.47-1.29-2.34,0,0-3.81,2.34-3.81,2.34Z"/>
  <path class="cls-4" d="M44.56,56.15h3.62c-.47-1.04-.96-1.92-1.46-2.67l-2.16,2.67Z"/>
  <path class="cls-2" d="M65.42,71.38l1-8.03s.09-.05.13-.08c.76-.46,1.55-1.06,2.33-1.85l5.41,2.08-3.75-4.1c.12-.17.23-.34.35-.52h5.1l-3.81-2.34c.06-.13.12-.26.19-.39h3.62l-2.16-2.67c.13-.19.26-.37.39-.54h3.75l-1.13-2.35c3.73-1.96,7.7,1.08,10.36,3.47l2.64,4.18-8.4-3.4s-2.66,6.96-7.31,13.1l-4.6-1.85.95,6c-2.89,2.76-6.28,4.79-10.07,4.98v-12.55s.25.06.69.1l4.33,6.76h-.01Z"/>
  <path class="cls-4" d="M61.1,64.61c1.02.09,3.07.04,5.33-1.26l-1,8.03-4.33-6.76h0Z"/>
  <path class="cls-4" d="M74.12,67.94c-1.11,1.46-2.33,2.88-3.65,4.14l-.95-6,4.6,1.85h0Z"/>
  <path class="cls-4" d="M74.29,63.51l-5.41-2.08c.56-.57,1.12-1.24,1.66-2.02,0,0,3.75,4.1,3.75,4.1Z"/>
  <path class="cls-4" d="M74.22,52.94c.84-1.12,1.72-1.88,2.62-2.35l1.13,2.35h-3.75Z"/>
  <path class="cls-4" d="M75.99,58.89h-5.1c.45-.7.88-1.47,1.29-2.34l3.81,2.34Z"/>
  <path class="cls-4" d="M75.99,56.15h-3.62c.47-1.04.96-1.92,1.46-2.67l2.16,2.67Z"/>
  <rect class="cls-2" x="59.6" y="64.51" width="1.37" height="12.55" transform="translate(-1.44 1.26) rotate(-1.18)"/>
  <g>
    <path class="cls-2" d="M84.15,9.55l-1.34,17.39-16.07,6.94-.36-.84,15.57-6.72,1.34-17.33,12.57-7.17-13.8,4.97-2.39,16.84-14.73,6.23.53,5.9-.08-.45c-2.37.4-4,2.47-4.06,2.56l.72.56s1.47-1.86,3.46-2.21l.23,2.56c-2.74-.35-4.38,2.5-4.45,2.62l.79.45s1.44-2.5,3.62-2.16l.07-.45.27,3c-3.84,1.87-5.11,4.72-5.17,4.84l.84.36s1.27-2.83,5.04-4.54l-.02-.03.3-.14c2.17,4.95.89,11.24.87,11.31l.89.19c.06-.28,1.37-6.67-.94-11.89l2.32-1.1,1.96-.93c.07.74.63,1.32,1.31,1.32.73,0,1.33-.66,1.33-1.48,0-.36-.12-.69-.31-.95l4.03-1.92,8.87-4.22,1.59-18.53L99.55.76s-15.4,8.79-15.4,8.79Z"/>
    <path class="cls-2" d="M68.97,54.5l-1.34-.28.05-.22c.01-.06,1.24-6.08-.76-10.93l-.08.06c-3.66,1.66-4.91,4.4-4.93,4.42l-.09.21-1.25-.54.09-.21c.05-.12,1.32-2.98,5.14-4.89l-.2-2.2c-1.99-.26-3.31,2.03-3.33,2.05l-.11.2-1.19-.67.11-.2c.07-.12,1.66-2.93,4.39-2.76l-.18-2.04c-1.76.43-3.02,2.01-3.08,2.08l-.14.18-1.08-.84.14-.18c.07-.09,1.68-2.13,4.03-2.61l-.49-5.4,14.77-6.25,2.39-16.85.13-.05,13.8-4.97.19.41-12.46,7.11-1.34,17.34-15.48,6.68.18.42,15.74-6.79,1.34-17.38.1-.06L100.42,0l-11.25,14.62-1.6,18.59-12.78,6.08c.14.26.21.55.21.85,0,.94-.7,1.71-1.55,1.71-.69,0-1.29-.5-1.48-1.21l-3.81,1.81c2.22,5.25.92,11.55.87,11.82l-.05.22h0ZM68.17,53.87l.45.09c.22-1.2,1.1-6.84-.97-11.52l-.09-.2,4.77-2.27.03.32c.06.64.53,1.11,1.09,1.11.61,0,1.1-.56,1.1-1.25,0-.29-.09-.57-.27-.81l-.17-.22,13.03-6.2,1.59-18.46.04-.05,9.91-12.88-14.3,8.17-1.34,17.41-16.41,7.08-.54-1.26,15.65-6.76,1.33-17.31,10.39-5.93-11.2,4.03-2.39,16.84-14.7,6.22.51,5.73-.45.06-.04-.22c-1.8.39-3.12,1.76-3.55,2.26l.36.28c.43-.48,1.74-1.82,3.45-2.12l.24-.04.13,1.44h0l.45,4.99-.14.07c-3.24,1.57-4.6,3.83-4.96,4.52l.42.18c.36-.68,1.72-2.88,4.86-4.36l.18-.12.51-.24.09.22c1.97,4.49,1.14,10.05.93,11.22v-.02ZM61.59,41.33l.4.23c.39-.58,1.67-2.24,3.51-2.1l.07-.45c-2.15-.19-3.57,1.7-3.98,2.33h0Z"/>
  </g>
  <g>
    <path class="cls-2" d="M54.77,42.25l.27-3,.07.45c2.18-.34,3.61,2.13,3.62,2.15l.79-.45c-.07-.12-1.7-2.97-4.45-2.62l.23-2.56c1.99.35,3.44,2.19,3.46,2.21l.72-.56c-.07-.09-1.7-2.16-4.06-2.56l-.08.45.53-5.9-14.73-6.23-2.39-16.84L24.95,1.82l12.56,7.17,1.34,17.33,15.57,6.72-.36.84-16.07-6.94-1.34-17.39L21.26.76l10.6,13.78,1.59,18.53,8.87,4.22,4.03,1.92c-.19.26-.31.58-.31.95,0,.82.59,1.48,1.33,1.48.68,0,1.24-.58,1.31-1.32l1.96.93,2.32,1.1c-2.31,5.22-1,11.6-.94,11.89l.89-.19c0-.07-1.3-6.35.87-11.31l.3.14-.02.03c3.77,1.71,5.03,4.51,5.04,4.54l.84-.36c-.05-.12-1.32-2.97-5.17-4.84Z"/>
    <path class="cls-2" d="M51.84,54.5l-.05-.22c-.06-.27-1.35-6.57.87-11.82l-3.81-1.81c-.19.71-.79,1.21-1.48,1.21-.86,0-1.55-.77-1.55-1.71,0-.3.07-.59.21-.85l-12.78-6.08-1.6-18.59L20.39,0l16.49,9.41,1.34,17.38,15.74,6.79.18-.42-15.49-6.68-1.34-17.34-12.46-7.11.19-.41,13.93,5.01,2.39,16.85,14.77,6.25-.48,5.4c2.37.48,3.96,2.52,4.03,2.61l.14.18-1.08.83-.14-.18c-.06-.07-1.33-1.65-3.08-2.08l-.18,2.04c2.72-.16,4.33,2.64,4.39,2.76l.11.2-1.19.67-.11-.2s-1.35-2.32-3.33-2.05l-.2,2.2c3.82,1.91,5.08,4.77,5.14,4.89l.09.21-1.25.54-.09-.21s-1.27-2.76-4.93-4.42l-.09-.04c-1.99,4.85-.77,10.85-.75,10.91l.05.22-1.34.28h0ZM48.48,39.97l4.77,2.27-.09.2c-2.07,4.68-1.19,10.32-.97,11.52l.45-.09c-.21-1.17-1.04-6.72.93-11.22l.09-.22.71.34v.03c3.12,1.49,4.48,3.68,4.84,4.35l.42-.18c-.36-.69-1.72-2.95-4.96-4.52l-.14-.07.3-3.34h0l.28-3.09.24.04c1.7.3,3.02,1.64,3.45,2.12l.36-.28c-.43-.49-1.77-1.87-3.55-2.26l-.04.22-.45-.06.51-5.73-14.7-6.22-2.39-16.84-11.2-4.03,10.39,5.94,1.33,17.31,15.65,6.76-.54,1.26-16.41-7.08-1.34-17.41L22.13,1.52l9.95,12.93v.07l1.59,18.4,13.03,6.2-.17.22c-.17.23-.27.51-.27.81,0,.69.49,1.25,1.1,1.25.56,0,1.02-.48,1.09-1.11,0,0,.03-.32.03-.32ZM55.53,39.44c1.73,0,2.91,1.55,3.28,2.11l.4-.22c-.41-.63-1.82-2.53-3.98-2.33l.07.45h.23Z"/>
  </g>
  <g class="cls-3">
    <g class="cls-3">
      <path class="cls-4" d="M10.95,90.25c0,.14-.01.31-.02.5s-.02.36-.02.5c0,.14,0,.26,0,.36-.39.17-.79.4-1.2.67-.41.27-.83.59-1.27.96-1.23-.43-2.39-.65-3.47-.65-1.46,0-2.94.42-4.43,1.25l-.08-.15c.33-.2.73-.44,1.2-.74.47-.3,1.03-.66,1.67-1.08,1.08-.77,1.62-1.69,1.62-2.76v-2.53l-.03-.17c0-.48.14-.98.43-1.48-.5.22-.85.44-1.05.66-.24.29-.35.67-.35,1.16v2.01c0,1.19-.6,2.27-1.81,3.24-.25.21-.79.59-1.62,1.16l-.06-.06c1.03-.96,1.54-1.75,1.54-2.39,0-.57-.18-.94-.54-1.13-.14-.07-.3-.11-.48-.11-.35,0-.67.15-.97.45.06-.45.27-.79.62-1.02.31-.23.7-.33,1.17-.31l.45.02c.07-.82.31-1.53.71-2.11.35-.54.91-1.03,1.67-1.48-.22,0-.54.02-.97.05-.42.03-.74.05-.96.05-.59,0-1.04-.08-1.37-.24-.32-.16-.58-.42-.76-.78-.19-.35-.27-.72-.25-1.11l.02-.29c.12.3.33.54.62.72.29.18.6.27.93.27l.08-.02c.24,0,.53-.01.88-.03s.76-.05,1.23-.09c.47-.04.89-.07,1.24-.09s.65-.03.89-.03h.62c.11,0,.33.02.66.05,1.71.18,2.79,1.38,3.24,3.61.15.77.23,1.71.23,2.82,0,.1,0,.22,0,.36ZM5.99,84.95l-.37-.02c-.26.39-.39.93-.39,1.6v2.53c0,.83-.21,1.49-.63,1.97l1.39.02v-6.11ZM7.78,89.61c-.56,0-1.05.2-1.48.59v.86c.48.05.96.12,1.44.2.48.08.96.19,1.46.32l.03-1.39c-.4-.39-.88-.59-1.45-.59ZM8.27,85.5c-.43-.37-1.09-.56-1.96-.56v2.41c.37.42.82.63,1.36.63s1-.21,1.4-.63c-.1-.86-.37-1.48-.8-1.85ZM9.21,89.51c0-.3,0-.59-.02-.88-.02-.29-.04-.57-.08-.83-.42.29-.9.43-1.44.43-.46,0-.92-.14-1.36-.42v1.96c.58-.26,1.11-.39,1.59-.39s.92.12,1.31.37v-.25Z"/>
      <path class="cls-4" d="M15.29,87.92l-.93-.91-.6.46v4l.83.65.45-.32.19.19-1.4,1.2c-.58-.49-1.23-.88-1.97-1.17.28-.23.42-.6.42-1.11v-3.1c0-.27-.12-.5-.37-.71l-.26.17-.17-.17,1.31-1.16c.32.17.54.32.66.46.16.17.27.42.31.74l1.56-1.19,1,1.1-1.02.88Z"/>
      <path class="cls-4" d="M20.83,93.19c-.66-.35-.99-.9-.99-1.67l-2.1,1.68h-.08c-.73-.68-1.1-1.34-1.1-1.97,0-.95.51-1.88,1.53-2.79l-.74-1.93.2.02c.58.05,1.11-.15,1.59-.6l2.19.73.43-.34.03.06c-.25.38-.42.78-.52,1.19v4.04c.07.26.22.42.43.48l.28-.14.17.14-1.33,1.11ZM19.84,87.48l-2.24-.83.65,1.76,1.59.77v-1.7ZM19.86,89.45l-1.6-.8c-.3.54-.45,1.04-.45,1.51,0,.7.3,1.35.9,1.94l1.16-.99v-1.67Z"/>
      <path class="cls-4" d="M27.62,87.57v3.7c0,.34.18.79.54,1.36.37.54.56.9.56,1.06v.06c-.05.36-.41.7-1.06,1.02-.28.13-.56.27-.83.4-.79-.22-1.45-.32-1.96-.32-.57,0-1.17.11-1.82.32l-.32-.28,1.67-1.9-1.44-1.02v-5.06c.19-.04.38-.1.58-.17.2-.07.41-.16.64-.26.05-.02.17-.08.36-.17s.45-.22.78-.39l2.36,1.08,1.16-.72v1.47l-1.2-.19ZM26.75,92.95c-.31-.45-.49-.94-.56-1.47l-2.21,2.44c.31-.06.75-.09,1.31-.09.75,0,1.57.14,2.45.42l.03-.19c-.49-.46-.84-.83-1.03-1.11ZM26.25,87.52l-1.94-.56v4.38l.99.66.96-.97v-3.52Z"/>
      <path class="cls-4" d="M32.06,93.23c-.81-.6-1.74-1-2.78-1.22.28-.23.42-.62.42-1.19v-3.66c.82-.23,1.55-.64,2.19-1.23.97.63,1.78.99,2.45,1.08v5.03c-.91.27-1.67.66-2.28,1.19ZM32.9,87.77l-1.77-.68v4.26c.17.07.35.14.53.22.18.07.37.14.56.22.27.1.49.18.68.23v-4.24Z"/>
      <path class="cls-4" d="M40.18,93.23c-.37-.24-.62-.49-.75-.76-.13-.27-.19-.63-.19-1.1v-3.69l-.69-.6-1.1.8v3.83l.42.53-1.11.99-1.17-.99.43-.48v-3.97c0-.27-.12-.5-.37-.71l-.25.17-.15-.17,1.27-1.16c.65.39.97.93.97,1.62.43-.32.81-.61,1.14-.88.33-.27.61-.5.83-.71l1.06.99.66-.52.15.17c-.11.14-.23.3-.34.46-.11.16-.23.33-.34.51v4.06c.07.18.22.35.43.49l.32-.18.15.15-1.39,1.14Z"/>
      <path class="cls-4" d="M54.72,83.98c-.18.23-.32.48-.43.73-.11.26-.19.53-.23.83-.05.29-.07.62-.07.96l.05,2.58c.02.97-.09,1.77-.34,2.42-.28.76-.81,1.49-1.6,2.18-.92.81-1.74,1.22-2.47,1.22-.34,0-.98-.16-1.93-.48l-.26-.05c-.32,0-.62.26-.9.77l-.06-.02c.24-1.25.84-1.88,1.81-1.88.11,0,.25,0,.4.03s.33.05.54.09c.44.08.76.12.94.12l.35-.05c.31-.12.46-.41.46-.86,0-.63-.13-1.12-.39-1.48-.48-.69-1.27-1.13-2.35-1.33.28-.25.61-.37.99-.37s.75.08,1.14.25c0-.59-.18-1.04-.55-1.37-.37-.32-.85-.49-1.44-.49.3-.33.68-.49,1.14-.49.32,0,.65.07.99.2.1-.91.51-1.66,1.22-2.25.17-.16.62-.48,1.33-.96l-.03-.06c-.85.34-1.48.51-1.87.51-.27,0-.6-.06-1-.17-.26-.09-.52-.18-.79-.26-.36-.11-.68-.17-.97-.17-.35,0-.59.09-.71.26-.08.22-.12.37-.12.46,0,.11.05.17.15.17.07,0,.18-.02.32-.05.14-.03.24-.05.32-.05.27,0,.42.16.45.48,0,.43-.2.65-.6.65-.26,0-.47-.11-.65-.32-.18-.22-.26-.45-.26-.71,0-.17.06-.4.17-.68.38-.88,1.14-1.31,2.27-1.31.27,0,.56.02.87.06.31.04.65.1,1,.18.1.02.21.05.32.08.11.03.23.06.36.08.44.08.77.12.97.12.5,0,1.2-.17,2.1-.49l.03.2c-.26.24-.48.47-.66.7ZM51.8,87.35v3.69c0,.81-.08,1.41-.23,1.79-.24.57-.69.99-1.36,1.28l.02.06c.94-.17,1.59-.57,1.98-1.22.29-.5.43-1.29.43-2.34v-2.84c0-.85.12-1.57.35-2.16.26-.59.69-1.18,1.3-1.77-1.66.86-2.48,2.04-2.48,3.52Z"/>
      <path class="cls-4" d="M59.98,93.23c-.65-.44-.97-.99-.97-1.64l-2.21,1.57c-.65-.41-.97-1.01-.97-1.79v-4.07l-.28-.26-.35.22-.15-.17,1.48-1.14,1.17.91-.46.37v4.1c0,.3.19.55.56.74l1.25-.9v-3.87l-.37-.46,1.1-.91,1.14.91-.45.39v4.4c0,.16.15.33.46.49l.28-.18.15.15-1.37,1.14Z"/>
      <path class="cls-4" d="M64.11,93.19c-.48-.42-1.21-.81-2.19-1.17.27-.3.4-.67.4-1.11v-6.16c0-.3-.17-.63-.51-.99.38.09.72.26,1.02.49l.17-.02c.47-.44,1-.7,1.59-.79-.5.37-.76.84-.76,1.4v6.5l1.13.71.37-.28.18.2-1.4,1.2Z"/>
      <path class="cls-4" d="M67.37,93.22c-.7-.37-1.02-.89-.97-1.56v-.28s.01-4.03.01-4.03l-.45-.48,1.14-.94,1.19.99-.39.43v4.27c.05.21.2.37.43.49l.28-.18.15.14-1.4,1.14ZM67.06,85.24h-.2l.37-1.57h1.14l-1.31,1.57Z"/>
      <path class="cls-4" d="M72.06,93.23c-.81-.6-1.74-1-2.78-1.22.28-.23.42-.62.42-1.19v-3.66c.82-.23,1.55-.64,2.19-1.23.97.63,1.78.99,2.45,1.08v5.03c-.91.27-1.67.66-2.28,1.19ZM72.89,87.77l-1.77-.68v4.26c.17.07.35.14.53.22.18.07.37.14.56.22.27.1.49.18.68.23v-4.24Z"/>
      <path class="cls-4" d="M89.03,84.67c-.51.37-1.12.52-1.81.46l-.19-.02v6.79c1.08-.34,1.96-1.02,2.64-2.05l.08.05c-.5,1.8-1.47,2.88-2.89,3.24-.4.1-.82.15-1.26.15-1.74,0-3.04-.62-3.92-1.85-.5-.7-.76-1.49-.76-2.36,0-.35.06-.74.17-1.17.19-.71.51-1.35.99-1.91.17-.23.4-.46.66-.7.27-.24.58-.5.93-.76l-.94-.05c-.47-.02-.91.08-1.3.29-.34.2-.71.57-1.11,1.13h-.06c.31-1.89,1.55-2.84,3.72-2.84.72,0,1.35.07,1.88.2.29.08.67.19,1.16.32.46.13.86.2,1.2.2.67,0,1.17-.27,1.5-.82h.09c0,.76-.26,1.32-.79,1.7ZM84.18,84.64l-.23-.06c-1.03,1.09-1.54,2.28-1.54,3.58,0,1.09.42,2.04,1.27,2.86.34-.32.51-.74.51-1.27v-5.11ZM86.7,85.1l-1-.2v3.15c0,.71-.14,1.31-.43,1.79-.21.36-.62.83-1.25,1.4.69.51,1.52.77,2.48.77l.2-.05v-6.87Z"/>
      <path class="cls-4" d="M92.21,89.95v1.61l1.3.57,1.02-.65.17.18c-.13.08-.27.17-.41.26-.14.09-.29.2-.44.31l-1.34.94c-.69-.38-1.4-.64-2.13-.77.29-.3.43-.67.43-1.13v-4.12c.36-.16.71-.35,1.06-.55.34-.21.69-.43,1.03-.66l1.99,1.99c-1.13.79-2.02,1.47-2.67,2.02ZM92.19,86.94v2.65l1.47-1.16-1.47-1.5Z"/>
      <path class="cls-4" d="M100.03,94.62c-.05-.04-.12-.1-.22-.16-.09-.07-.2-.15-.32-.25l-.51.52c-.27.24-.61.39-1.02.45.45-.62.67-1.2.66-1.74l-.05-1.84-2.19,1.57c-.65-.43-.97-1.03-.97-1.79v-4.34c.84-.22,1.56-.59,2.16-1.11.99.71,1.94,1.16,2.87,1.34l-.39.49v5.69c0,.41.2.87.59,1.39-.21-.03-.41-.11-.62-.23ZM98.61,87.96l-1.79-.77v4.15c0,.3.18.55.55.74l1.23-.9v-3.22Z"/>
      <path class="cls-4" d="M106.06,93.23c-.65-.44-.97-.99-.97-1.64l-2.21,1.57c-.65-.41-.97-1.01-.97-1.79v-4.07l-.28-.26-.36.22-.15-.17,1.48-1.14,1.17.91-.46.37v4.1c0,.3.19.55.56.74l1.25-.9v-3.87l-.37-.46,1.1-.91,1.14.91-.45.39v4.4c0,.16.15.33.46.49l.28-.18.15.15-1.37,1.14Z"/>
      <path class="cls-4" d="M109.33,93.22c-.7-.37-1.02-.89-.97-1.56v-.28s.01-4.03.01-4.03l-.45-.48,1.14-.94,1.19.99-.39.43v4.27c.05.21.2.37.43.49l.28-.18.15.14-1.4,1.14ZM109.03,85.24h-.2l.37-1.57h1.14l-1.31,1.57Z"/>
      <path class="cls-4" d="M113.5,93.19c-.48-.42-1.21-.81-2.19-1.17.27-.3.4-.67.4-1.11v-6.16c0-.3-.17-.63-.51-.99.38.09.72.26,1.02.49l.17-.02c.47-.44,1-.7,1.59-.79-.5.37-.76.84-.76,1.4v6.5l1.13.71.37-.28.19.2-1.4,1.2Z"/>
      <path class="cls-4" d="M119.66,93.19c-.66-.35-.99-.9-.99-1.67l-2.1,1.68h-.08c-.73-.68-1.09-1.34-1.09-1.97,0-.95.51-1.88,1.53-2.79l-.74-1.93.2.02c.58.05,1.11-.15,1.59-.6l2.19.73.43-.34.03.06c-.25.38-.42.78-.52,1.19v4.04c.07.26.22.42.43.48l.28-.14.17.14-1.33,1.11ZM118.67,87.48l-2.24-.83.65,1.76,1.59.77v-1.7ZM118.69,89.45l-1.6-.8c-.3.54-.45,1.04-.45,1.51,0,.7.3,1.35.89,1.94l1.16-.99v-1.67Z"/>
    </g>
  </g>
</svg>