<?xml version="1.0" encoding="UTF-8"?>
<svg xmlns="http://www.w3.org/2000/svg" version="1.1" viewBox="0 0 136.1 96.7">
  <defs>
    <style>
      .cls-1 {
        fill: none;
      }

      .cls-2 {
        fill: #231f20;
      }

      .cls-3 {
        isolation: isolate;
      }

      .cls-4 {
        fill: #ffdbdb;
      }

      .cls-5 {
        fill: #e85521;
      }
    </style>
  </defs>
  <!-- Generator: Adobe Illustrator 28.6.0, SVG Export Plug-In . SVG Version: 1.2.0 Build 709)  -->
  <g>
    <g id="Layer_2">
      <g>
        <path class="cls-4" d="M89.2,7l-2.4,16.8-14.7,6.2.5,5.9v-.5c-2.5.4-4.1,2.5-4.1,2.6l.7.6s1.5-1.9,3.5-2.2l.2,2.6c-2.7-.3-4.4,2.5-4.4,2.6l.8.5s1.4-2.5,3.6-2.2v-.5c0,0,.3,3,.3,3-3.8,1.9-5.1,4.7-5.2,4.8l.8.4s1.3-2.8,5-4.5h0s.3-.2.3-.2c2.2,5,.9,11.2.9,11.3l.9.2c0-.3,1.4-6.7-.9-11.9l2.3-1.1,2-.9c0,.7.6,1.3,1.3,1.3s1.3-.7,1.3-1.5-.1-.7-.3-1l4-1.9,8.9-4.2,1.6-18.5L107,.6s-17.8,6.4-17.8,6.4Z"/>
        <path class="cls-4" d="M72.2,32.6v-.9c-2.2.2-3.6,1.9-3.7,2l.7.6s1.2-1.5,2.9-1.7h0Z"/>
        <path class="cls-4" d="M62.2,42.4l.3-3v.5c2.2-.3,3.7,2.1,3.7,2.2l.8-.5c0-.1-1.7-3-4.5-2.6l.2-2.6c2,.3,3.4,2.2,3.5,2.2l.7-.6c0,0-1.7-2.2-4.1-2.6v.5c0,0,.4-5.9.4-5.9l-14.7-6.2-2.4-16.8L28.5.6l10.9,14.1,1.6,18.5,8.9,4.2,4,1.9c-.2.3-.3.6-.3,1,0,.8.6,1.5,1.3,1.5s1.2-.6,1.3-1.3l2,.9,2.3,1.1c-2.3,5.2-1,11.6-.9,11.9l.9-.2c0,0-1.3-6.3.9-11.3h.3c0,.1,0,.2,0,.2,3.8,1.7,5,4.5,5,4.5l.8-.4c0-.1-1.3-3-5.2-4.8h0Z"/>
        <path class="cls-4" d="M66.3,34.2l.7-.6c0,0-1.5-1.8-3.5-2v.9c1.6.2,2.8,1.6,2.9,1.7h0Z"/>
      </g>
      <path class="cls-1" d="M57.4,62c0,.2.1.3.2.5l.6-.5s-.7,0-.7,0Z"/>
      <path class="cls-1" d="M58.7,65.4c0,.2.2.4.3.7l.4-.7h-.7Z"/>
      <path class="cls-1" d="M56,58.6l.4-.7h0s-.7,0-.7,0c.1.2.2.4.3.7h0Z"/>
      <polygon class="cls-5" points="56.4 57.9 56.4 57.9 56.4 58 56.4 57.9"/>
      <path class="cls-4" d="M77.4,41.3l8.3-4c1.9,7.6-6.1,6.6-8.3,4Z"/>
      <g>
        <path class="cls-2" d="M72.2,48c2.6-.8,2.8,6.8,0,6.8s-2.8,4.9-2.8,6.2-1-11.8,2.8-13Z"/>
        <path class="cls-2" d="M68.8,61.8v-.6c-.1-.1-1.2-12.5,3.2-13.9l.2.7-.2-.7c.7-.2,1.4,0,2,.6,1.2,1.3,1.2,4.2.4,5.9-.5,1.1-1.3,1.7-2.2,1.7-1.4,0-2.1,1.9-2.1,5.6s-.5.8-.6.8h-.6c0,0,0,0,0,0ZM72.5,48.6c0,0-.1,0-.2,0-1.4.4-2.1,3.4-2.3,6.4.5-.6,1.2-1,2.1-1s.7-.3,1-.8c.6-1.4.4-3.7-.2-4.4-.1-.2-.2-.2-.4-.2h0Z"/>
      </g>
      <path class="cls-4" d="M58.1,41.2l-8.3-4c-1.9,7.6,6.1,6.6,8.3,4Z"/>
      <g>
        <path class="cls-2" d="M63.3,48c-2.6-.8-2.8,6.8,0,6.8s2.8,4.9,2.8,6.2,1-11.8-2.8-13Z"/>
        <path class="cls-2" d="M66.7,61.8h-.6c0,0-.6-.1-.6-.8,0-3.6-.7-5.6-2.1-5.6s-1.7-.6-2.2-1.7c-.7-1.6-.7-4.6.5-5.9.5-.6,1.2-.8,2-.6h0c4.3,1.3,3.3,13.7,3.3,13.9,0,0-.1.6-.1.6ZM62.9,48.6c-.1,0-.2,0-.4.2-.6.7-.9,3-.2,4.4.2.6.6.8,1,.8.9,0,1.6.3,2.1,1-.2-2.9-.9-5.9-2.3-6.4h0c0,0-.1,0-.2,0h0Z"/>
      </g>
      <g>
        <path class="cls-2" d="M72.2,32.4v-.9c-2.2.2-3.6,1.9-3.7,2l.7.6s1.2-1.5,2.9-1.7h0Z"/>
        <path class="cls-2" d="M69.2,34.3l-1.1-.9.2-.2c0,0,1.5-1.8,3.7-2h.2s.2,1.3.2,1.3h-.2c-1.6.2-2.8,1.5-2.8,1.6l-.2.2h0ZM68.8,33.4l.3.3c.4-.4,1.4-1.3,2.7-1.5v-.5c-1.6.2-2.7,1.3-3.1,1.7Z"/>
      </g>
      <g>
        <path class="cls-2" d="M66.3,34l.7-.6c0,0-1.5-1.8-3.5-2v.9c1.6.2,2.8,1.6,2.9,1.7h0Z"/>
        <path class="cls-2" d="M66.2,34.3l-.2-.2s-1.2-1.4-2.8-1.6h-.2s.2-1.4.2-1.4h.2c2.2.2,3.6,2,3.7,2.1v.2c.1,0-.9.9-.9.9h0ZM63.6,32.2c1.3.2,2.3,1.2,2.7,1.5l.3-.3c-.4-.4-1.5-1.4-3-1.7,0,0,0,.4,0,.5Z"/>
      </g>
      <path class="cls-2" d="M62.5,71.4l-1-8s0,0-.1,0c-.8-.5-1.5-1.1-2.3-1.8l-5.4,2.1,3.8-4.1c-.1-.2-.2-.3-.3-.5h-5.1l3.8-2.3c0-.1-.1-.3-.2-.4h-3.6l2.2-2.7c-.1-.2-.3-.4-.4-.5h-3.8l1.1-2.3c-3.7-2-7.7,1.1-10.4,3.5l-2.6,4.2,8.4-3.4s2.7,7,7.3,13.1l4.6-1.8-1,6c2.9,2.8,6.3,4.8,10.1,5v-12.6s-.2,0-.7,0l-4.3,6.8h0Z"/>
      <path class="cls-4" d="M66.8,64.6c-1,0-3.1,0-5.3-1.3l1,8,4.3-6.8h0Z"/>
      <path class="cls-4" d="M53.8,67.9c1.1,1.5,2.3,2.9,3.7,4.1l1-6-4.6,1.8h0Z"/>
      <path class="cls-4" d="M53.6,63.5l5.4-2.1c-.6-.6-1.1-1.2-1.7-2l-3.8,4.1Z"/>
      <path class="cls-4" d="M53.7,52.9c-.8-1.1-1.7-1.9-2.6-2.3l-1.1,2.3h3.8Z"/>
      <path class="cls-4" d="M51.9,58.9h5.1c-.5-.7-.9-1.5-1.3-2.3,0,0-3.8,2.3-3.8,2.3Z"/>
      <path class="cls-4" d="M51.9,56.2h3.6c-.5-1-1-1.9-1.5-2.7l-2.2,2.7Z"/>
      <path class="cls-2" d="M72.8,71.4l1-8s0,0,.1,0c.8-.5,1.6-1.1,2.3-1.8l5.4,2.1-3.8-4.1c.1-.2.2-.3.3-.5h5.1l-3.8-2.3c0-.1.1-.3.2-.4h3.6l-2.2-2.7c.1-.2.3-.4.4-.5h3.8l-1.1-2.3c3.7-2,7.7,1.1,10.4,3.5l2.6,4.2-8.4-3.4s-2.7,7-7.3,13.1l-4.6-1.8.9,6c-2.9,2.8-6.3,4.8-10.1,5v-12.6s.2,0,.7,0l4.3,6.8h0Z"/>
      <path class="cls-4" d="M68.4,64.6c1,0,3.1,0,5.3-1.3l-1,8-4.3-6.8h0Z"/>
      <path class="cls-4" d="M81.4,67.9c-1.1,1.5-2.3,2.9-3.7,4.1l-.9-6,4.6,1.8h0Z"/>
      <path class="cls-4" d="M81.6,63.5l-5.4-2.1c.6-.6,1.1-1.2,1.7-2,0,0,3.8,4.1,3.7,4.1Z"/>
      <path class="cls-4" d="M81.6,52.9c.8-1.1,1.7-1.9,2.6-2.3l1.1,2.3h-3.8Z"/>
      <path class="cls-4" d="M83.3,58.9h-5.1c.4-.7.9-1.5,1.3-2.3l3.8,2.3Z"/>
      <path class="cls-4" d="M83.3,56.2h-3.6c.5-1,1-1.9,1.5-2.7l2.2,2.7Z"/>
      <rect class="cls-2" x="66.9" y="64.5" width="1.4" height="12.6" transform="translate(-1.4 1.4) rotate(-1.2)"/>
      <g>
        <path class="cls-2" d="M91.5,9.6l-1.3,17.4-16.1,6.9-.4-.8,15.6-6.7,1.3-17.3,12.6-7.2-13.8,5-2.4,16.8-14.7,6.2.5,5.9v-.5c-2.5.4-4.1,2.5-4.1,2.6l.7.6s1.5-1.9,3.5-2.2l.2,2.6c-2.7-.3-4.4,2.5-4.4,2.6l.8.5s1.4-2.5,3.6-2.2v-.5c0,0,.3,3,.3,3-3.8,1.9-5.1,4.7-5.2,4.8l.8.4s1.3-2.8,5-4.5h0s.3-.2.3-.2c2.2,5,.9,11.2.9,11.3l.9.2c0-.3,1.4-6.7-.9-11.9l2.3-1.1,2-.9c0,.7.6,1.3,1.3,1.3s1.3-.7,1.3-1.5-.1-.7-.3-1l4-1.9,8.9-4.2,1.6-18.5L106.9.8s-15.4,8.8-15.4,8.8Z"/>
        <path class="cls-2" d="M76.3,54.5l-1.3-.3v-.2c0,0,1.3-6.1-.7-10.9h0c-3.7,1.7-4.9,4.5-4.9,4.5v.2c0,0-1.3-.5-1.3-.5v-.2c.1-.1,1.4-3,5.2-4.9l-.2-2.2c-2-.3-3.3,2-3.3,2v.2c-.1,0-1.3-.7-1.3-.7v-.2c.2-.1,1.8-2.9,4.5-2.8l-.2-2c-1.8.4-3,2-3.1,2.1v.2c-.1,0-1.2-.8-1.2-.8v-.2c.2,0,1.8-2.1,4.2-2.6l-.5-5.4,14.8-6.2,2.4-16.9h.1c0,0,13.8-5,13.8-5l.2.4-12.5,7.1-1.3,17.3-15.5,6.7.2.4,15.7-6.8,1.3-17.4h0c0,0,16.4-9.4,16.4-9.4l-11.2,14.6-1.6,18.6-12.8,6.1c.1.3.2.5.2.8,0,.9-.7,1.7-1.6,1.7s-1.3-.5-1.5-1.2l-3.8,1.8c2.2,5.2.9,11.5.9,11.8v.2c0,0,0,0,0,0ZM75.5,53.9h.4c.2-1.1,1.1-6.8-1-11.4v-.2c0,0,4.7-2.3,4.7-2.3v.3c0,.6.6,1.1,1.1,1.1s1.1-.6,1.1-1.2,0-.6-.3-.8l-.2-.2,13-6.2,1.6-18.5h0c0,0,9.9-12.9,9.9-12.9l-14.3,8.2-1.3,17.4-16.4,7.1-.5-1.3,15.7-6.8,1.3-17.3,10.4-5.9-11.2,4-2.4,16.8-14.7,6.2.5,5.7h-.4c0,0,0-.2,0-.2-1.8.4-3.1,1.8-3.6,2.3l.4.3c.4-.5,1.7-1.8,3.4-2.1h.2s.1,1.4.1,1.4h0l.4,5h-.1c-3.2,1.6-4.6,3.9-5,4.6l.4.2c.4-.7,1.7-2.9,4.9-4.4h.2c0-.1.5-.4.5-.4v.2c2.1,4.5,1.2,10,1,11.2h0ZM68.9,41.3l.4.2c.4-.6,1.7-2.2,3.5-2.1v-.5c-2.1-.2-3.5,1.7-3.9,2.3h0Z"/>
      </g>
      <g>
        <path class="cls-2" d="M62.1,42.2l.3-3v.5c2.2-.3,3.7,2.1,3.7,2.2l.8-.5c0-.1-1.7-3-4.5-2.6l.2-2.6c2,.3,3.4,2.2,3.5,2.2l.7-.6c0,0-1.7-2.2-4.1-2.6v.5c0,0,.4-5.9.4-5.9l-14.7-6.2-2.4-16.8-13.8-5,12.6,7.2,1.3,17.3,15.6,6.7-.4.8-16.1-6.9-1.3-17.4L28.6.8l10.6,13.8,1.6,18.5,8.9,4.2,4,1.9c-.2.3-.3.6-.3,1,0,.8.6,1.5,1.3,1.5s1.2-.6,1.3-1.3l2,.9,2.3,1.1c-2.3,5.2-1,11.6-.9,11.9l.9-.2c0,0-1.3-6.3.9-11.3h.3c0,.1,0,.2,0,.2,3.8,1.7,5,4.5,5,4.5l.8-.4c0-.1-1.3-3-5.2-4.8Z"/>
        <path class="cls-2" d="M59.2,54.5v-.2c-.1-.3-1.4-6.6.8-11.8l-3.8-1.8c-.2.7-.8,1.2-1.5,1.2s-1.5-.8-1.5-1.7,0-.6.2-.8l-12.8-6.1-1.6-18.6L27.7,0l16.5,9.4,1.3,17.4,15.7,6.8.2-.4-15.5-6.7-1.3-17.3-12.5-7.1.2-.4,13.9,5,2.4,16.8,14.8,6.2-.5,5.4c2.4.5,4,2.5,4,2.6v.2c.1,0-.9.8-.9.8v-.2c-.2,0-1.5-1.7-3.2-2.1l-.2,2c2.7-.2,4.3,2.6,4.4,2.8v.2c.1,0-1.1.7-1.1.7v-.2c-.1,0-1.5-2.3-3.4-2l-.2,2.2c3.8,1.9,5.1,4.8,5.1,4.9v.2c0,0-1.2.5-1.2.5v-.2c0,0-1.4-2.8-5-4.4h0c-2,4.8-.8,10.8-.8,10.9v.2s-1.3.3-1.3.3h0ZM55.8,40l4.8,2.3v.2c-2.2,4.7-1.3,10.3-1.1,11.5h.5c-.2-1.3-1-6.8.9-11.3v-.2c0,0,.8.3.8.3h0c3.1,1.5,4.5,3.7,4.8,4.4l.4-.2c-.4-.7-1.7-3-5-4.5h-.1c0,0,.3-3.4.3-3.4h0l.3-3.1h.2c1.7.3,3,1.7,3.4,2.2l.4-.3c-.4-.5-1.8-1.9-3.5-2.3v.2s-.5,0-.5,0l.5-5.7-14.7-6.2-2.4-16.8-11.2-4,10.4,5.9,1.3,17.3,15.6,6.8-.5,1.3-16.4-7.1-1.3-17.4L29.5,1.5l10,12.9h0c0,0,1.6,18.5,1.6,18.5l13,6.2-.2.2c-.2.2-.3.5-.3.8,0,.7.5,1.2,1.1,1.2s1-.5,1.1-1.1c0,0,0-.3,0-.3ZM62.9,39.4c1.7,0,2.9,1.5,3.3,2.1l.4-.2c-.4-.6-1.8-2.5-4-2.3v.5h.3Z"/>
      </g>
      <g class="cls-3">
        <g class="cls-3">
          <path class="cls-4" d="M18.3,90.2c0,.1,0,.3,0,.5s0,.4,0,.5c0,.1,0,.3,0,.4-.4.2-.8.4-1.2.7-.4.3-.8.6-1.3,1-1.2-.4-2.4-.6-3.5-.6s-2.9.4-4.4,1.2v-.2c.3-.2.7-.4,1.1-.7.5-.3,1-.7,1.7-1.1,1.1-.8,1.6-1.7,1.6-2.8v-2.7c0-.5.1-1,.4-1.5-.5.2-.9.4-1,.7-.2.3-.4.7-.4,1.2v2c0,1.2-.6,2.3-1.8,3.2-.2.2-.8.6-1.6,1.2h0c1-1,1.5-1.8,1.5-2.5s-.2-.9-.5-1.1c-.1,0-.3-.1-.5-.1-.3,0-.7.1-1,.4,0-.5.3-.8.6-1,.3-.2.7-.3,1.2-.3h.4c0-.8.3-1.5.7-2.1.3-.5.9-1,1.7-1.5-.2,0-.5,0-1,0-.4,0-.7,0-1,0-.6,0-1,0-1.4-.2-.3-.2-.6-.4-.8-.8-.2-.3-.3-.7-.2-1.1v-.3c.1.3.3.5.6.7.3.2.6.3.9.3h0c.2,0,.5,0,.9,0s.8,0,1.2,0c.5,0,.9,0,1.2,0s.7,0,.9,0h.6c.1,0,.3,0,.7,0,1.7.2,2.8,1.4,3.2,3.6.2.8.2,1.7.2,2.8s0,.2,0,.4ZM13.3,84.9h-.4c-.3.4-.4.9-.4,1.6v2.5c0,.8-.2,1.5-.6,2h1.4s0-6.1,0-6.1ZM15.1,89.6c-.6,0-1,.2-1.5.6v.9c.5,0,1,.1,1.4.2.5,0,1,.2,1.5.3v-1.4c-.4-.4-.9-.6-1.4-.6ZM15.6,85.5c-.4-.4-1.1-.6-2-.6v2.4c.4.4.8.6,1.4.6s1-.2,1.4-.6c-.1-.9-.4-1.5-.8-1.9ZM16.5,89.5c0-.3,0-.6,0-.9,0-.3,0-.6,0-.8-.4.3-.9.4-1.4.4s-.9-.1-1.4-.4v2c.6-.3,1.1-.4,1.6-.4s.9.1,1.3.4v-.2Z"/>
          <path class="cls-4" d="M22.6,87.9l-.9-.9-.6.5v4l.8.6.4-.3.2.2-1.4,1.2c-.6-.5-1.2-.9-2-1.2.3-.2.4-.6.4-1.1v-3.1c0-.3-.1-.5-.4-.7l-.3.2-.2-.2,1.3-1.2c.3.2.5.3.7.5.2.2.3.4.3.7l1.6-1.2,1,1.1-1,.9Z"/>
          <path class="cls-4" d="M28.2,93.2c-.7-.3-1-.9-1-1.7l-2.1,1.7h0c-.7-.7-1.1-1.3-1.1-2,0-.9.5-1.9,1.5-2.8l-.7-1.9h.2c.6,0,1.1-.1,1.6-.6l2.2.7.4-.3h0c-.2.4-.4.8-.5,1.2v4c0,.3.2.4.4.5h.3c0-.1.2,0,.2,0l-1.3,1.1ZM27.2,87.5l-2.2-.8.6,1.8,1.6.8v-1.7ZM27.2,89.5l-1.6-.8c-.3.5-.4,1-.4,1.5,0,.7.3,1.3.9,1.9l1.2-1v-1.7Z"/>
          <path class="cls-4" d="M34.9,87.6v3.7c0,.3.2.8.5,1.4.4.5.6.9.6,1.1h0c0,.4-.4.8-1.1,1.1-.3.1-.6.3-.8.4-.8-.2-1.4-.3-2-.3s-1.2.1-1.8.3l-.3-.3,1.7-1.9-1.4-1v-5.1c.2,0,.4,0,.6-.2.2,0,.4-.2.6-.3,0,0,.2,0,.4-.2s.4-.2.8-.4l2.4,1.1,1.2-.7v1.5l-1.2-.2ZM34.1,93c-.3-.5-.5-.9-.6-1.5l-2.2,2.4c.3,0,.7,0,1.3,0s1.6.1,2.5.4v-.2c-.5-.5-.8-.8-1-1.1ZM33.6,87.5l-1.9-.6v4.4l1,.7,1-1v-3.5Z"/>
          <path class="cls-4" d="M39.4,93.2c-.8-.6-1.7-1-2.8-1.2.3-.2.4-.6.4-1.2v-3.7c.8-.2,1.6-.6,2.2-1.2,1,.6,1.8,1,2.5,1.1v5c-.9.3-1.7.7-2.3,1.2ZM40.2,87.8l-1.8-.7v4.3c.2,0,.4.1.5.2.2,0,.4.1.6.2.3.1.5.2.7.2v-4.2Z"/>
          <path class="cls-4" d="M47.5,93.2c-.4-.2-.6-.5-.7-.8-.1-.3-.2-.6-.2-1.1v-3.7l-.7-.6-1.1.8v3.8l.4.5-1.1,1-1.2-1,.4-.5v-4c0-.3-.1-.5-.4-.7l-.2.2-.2-.2,1.3-1.2c.6.4,1,.9,1,1.6.4-.3.8-.6,1.1-.9.3-.3.6-.5.8-.7l1.1,1,.7-.5.2.2c-.1.1-.2.3-.3.5-.1.2-.2.3-.3.5v4.1c0,.2.2.3.4.5l.3-.2.2.2-1.4,1.1Z"/>
          <path class="cls-4" d="M62,84c-.2.2-.3.5-.4.7-.1.3-.2.5-.2.8,0,.3,0,.6,0,1v2.6c0,1,0,1.8-.3,2.4-.3.8-.8,1.5-1.6,2.2-.9.8-1.7,1.2-2.5,1.2s-1-.2-1.9-.5h-.3c-.3,0-.6.2-.9.7h0c.2-1.3.8-1.9,1.8-1.9s.2,0,.4,0,.3,0,.5,0c.4,0,.8.1.9.1h.4c.3-.2.5-.5.5-.9s-.1-1.1-.4-1.5c-.5-.7-1.3-1.1-2.3-1.3.3-.2.6-.4,1-.4s.8,0,1.1.2c0-.6-.2-1-.5-1.4-.4-.3-.8-.5-1.4-.5.3-.3.7-.5,1.1-.5s.6,0,1,.2c.1-.9.5-1.7,1.2-2.3.2-.2.6-.5,1.3-1h0c-.9.3-1.5.4-1.9.4s-.6,0-1-.2c-.3,0-.5-.2-.8-.3-.4-.1-.7-.2-1-.2s-.6,0-.7.3c0,.2-.1.4-.1.5s0,.2.2.2.2,0,.3,0c.1,0,.2,0,.3,0,.3,0,.4.2.4.5,0,.4-.2.6-.6.6s-.5-.1-.6-.3c-.2-.2-.3-.5-.3-.7s0-.4.2-.7c.4-.9,1.1-1.3,2.3-1.3s.6,0,.9,0c.3,0,.6.1,1,.2.1,0,.2,0,.3,0,.1,0,.2,0,.4,0,.4,0,.8.1,1,.1.5,0,1.2-.2,2.1-.5v.2c-.2.2-.4.5-.6.7ZM59.1,87.4v3.7c0,.8,0,1.4-.2,1.8-.2.6-.7,1-1.4,1.3h0c.9-.1,1.6-.5,2-1.2.3-.5.4-1.3.4-2.3v-2.8c0-.9.1-1.6.4-2.2.3-.6.7-1.2,1.3-1.8-1.7.9-2.5,2-2.5,3.5Z"/>
          <path class="cls-4" d="M67.3,93.2c-.6-.4-1-1-1-1.6l-2.2,1.6c-.6-.4-1-1-1-1.8v-4.1l-.3-.3-.4.2-.2-.2,1.5-1.1,1.2.9-.5.4v4.1c0,.3.2.5.6.7l1.2-.9v-3.9l-.4-.5,1.1-.9,1.1.9-.4.4v4.4c0,.2.2.3.5.5l.3-.2.2.2-1.4,1.1Z"/>
          <path class="cls-4" d="M71.4,93.2c-.5-.4-1.2-.8-2.2-1.2.3-.3.4-.7.4-1.1v-6.2c0-.3-.2-.6-.5-1,.4,0,.7.3,1,.5h.2c.5-.5,1-.7,1.6-.8-.5.4-.8.8-.8,1.4v6.5l1.1.7.4-.3.2.2-1.4,1.2Z"/>
          <path class="cls-4" d="M74.7,93.2c-.7-.4-1-.9-1-1.6v-.3s0-4,0-4l-.4-.5,1.1-.9,1.2,1-.4.4v4.3c0,.2.2.4.4.5l.3-.2h.2c0,.1-1.4,1.3-1.4,1.3ZM74.4,85.2h-.2l.4-1.6h1.1l-1.3,1.6Z"/>
          <path class="cls-4" d="M79.4,93.2c-.8-.6-1.7-1-2.8-1.2.3-.2.4-.6.4-1.2v-3.7c.8-.2,1.6-.6,2.2-1.2,1,.6,1.8,1,2.5,1.1v5c-.9.3-1.7.7-2.3,1.2ZM80.2,87.8l-1.8-.7v4.3c.2,0,.4.1.5.2.2,0,.4.1.6.2.3.1.5.2.7.2v-4.2Z"/>
          <path class="cls-4" d="M96.4,84.7c-.5.4-1.1.5-1.8.5h-.2s0,6.8,0,6.8c1.1-.3,2-1,2.6-2.1h0c-.5,1.8-1.5,2.9-2.9,3.3-.4.1-.8.2-1.3.2-1.7,0-3-.6-3.9-1.9-.5-.7-.8-1.5-.8-2.4s0-.7.2-1.2c.2-.7.5-1.3,1-1.9.2-.2.4-.5.7-.7.3-.2.6-.5.9-.8h-.9c-.5,0-.9,0-1.3.2-.3.2-.7.6-1.1,1.1h0c.3-1.9,1.5-2.8,3.7-2.8s1.3,0,1.9.2c.3,0,.7.2,1.2.3.5.1.9.2,1.2.2.7,0,1.2-.3,1.5-.8h0c0,.8-.3,1.3-.8,1.7ZM91.5,84.6h-.2c-1,1-1.5,2.2-1.5,3.5s.4,2,1.3,2.9c.3-.3.5-.7.5-1.3v-5.1ZM94,85.1l-1-.2v3.1c0,.7-.1,1.3-.4,1.8-.2.4-.6.8-1.2,1.4.7.5,1.5.8,2.5.8h.2v-6.9Z"/>
          <path class="cls-4" d="M99.5,89.9v1.6l1.3.6,1-.6.2.2c-.1,0-.3.2-.4.3-.1,0-.3.2-.4.3l-1.3.9c-.7-.4-1.4-.6-2.1-.8.3-.3.4-.7.4-1.1v-4.1c.4-.2.7-.3,1.1-.6.3-.2.7-.4,1-.7l2,2c-1.1.8-2,1.5-2.7,2ZM99.5,86.9v2.7l1.5-1.2-1.5-1.5Z"/>
          <path class="cls-4" d="M107.4,94.6c0,0-.1,0-.2-.2,0,0-.2-.2-.3-.3l-.5.5c-.3.2-.6.4-1,.4.5-.6.7-1.2.7-1.7v-1.8s-2.2,1.6-2.2,1.6c-.6-.4-1-1-1-1.8v-4.3c.8-.2,1.6-.6,2.2-1.1,1,.7,1.9,1.2,2.9,1.3l-.4.5v5.7c0,.4.2.9.6,1.4-.2,0-.4-.1-.6-.2ZM105.9,88l-1.8-.8v4.2c0,.3.2.5.6.7l1.2-.9v-3.2Z"/>
          <path class="cls-4" d="M113.4,93.2c-.6-.4-1-1-1-1.6l-2.2,1.6c-.6-.4-1-1-1-1.8v-4.1l-.3-.3-.4.2-.2-.2,1.5-1.1,1.2.9-.5.4v4.1c0,.3.2.5.6.7l1.2-.9v-3.9l-.4-.5,1.1-.9,1.1.9-.4.4v4.4c0,.2.2.3.5.5l.3-.2.2.2-1.4,1.1Z"/>
          <path class="cls-4" d="M116.7,93.2c-.7-.4-1-.9-1-1.6v-.3s0-4,0-4l-.4-.5,1.1-.9,1.2,1-.4.4v4.3c0,.2.2.4.4.5l.3-.2h.2c0,.1-1.4,1.3-1.4,1.3ZM116.4,85.2h-.2l.4-1.6h1.1l-1.3,1.6Z"/>
          <path class="cls-4" d="M120.8,93.2c-.5-.4-1.2-.8-2.2-1.2.3-.3.4-.7.4-1.1v-6.2c0-.3-.2-.6-.5-1,.4,0,.7.3,1,.5h.2c.5-.5,1-.7,1.6-.8-.5.4-.8.8-.8,1.4v6.5l1.1.7.4-.3.2.2-1.4,1.2Z"/>
          <path class="cls-4" d="M127,93.2c-.7-.3-1-.9-1-1.7l-2.1,1.7h0c-.7-.7-1.1-1.3-1.1-2,0-.9.5-1.9,1.5-2.8l-.7-1.9h.2c.6,0,1.1-.1,1.6-.6l2.2.7.4-.3h0c-.2.4-.4.8-.5,1.2v4c0,.3.2.4.4.5h.3c0-.1.2,0,.2,0l-1.3,1.1ZM126,87.5l-2.2-.8.6,1.8,1.6.8v-1.7ZM126,89.5l-1.6-.8c-.3.5-.4,1-.4,1.5,0,.7.3,1.3.9,1.9l1.2-1v-1.7Z"/>
        </g>
      </g>
    </g>
  </g>
</svg>